<svg width="1600" height="327" viewBox="0 0 1600 327" fill="none" xmlns="http://www.w3.org/2000/svg">
<g filter="url(#filter0_d_12_55)">
<path d="M0 79.75L19 93.0832C38.1111 105.918 76.6667 133.332 114.444 152.896C152.333 173.207 190 185.668 228.889 159.5C266.667 133.332 304.444 66.043 343.333 66.4168C381 66.043 418.889 133.332 456.667 152.896C495.222 173.207 533.333 145.793 571.111 159.5C609.555 173.207 647.778 225.543 685.555 205.979C723.778 185.668 762.222 93.457 800 99.6875C838.111 105.918 876.667 154.55 914.444 207.26C952.333 260.468 990 260.468 1028.89 227.197C1071.95 195.351 1092.97 182.893 1139.27 165.353C1188.12 149.257 1218.89 173.207 1256.67 146.167C1295.22 119.625 1333.33 39.875 1371.11 26.5418C1409.56 13.707 1447.78 66.043 1485.56 73.1457C1523.78 79.75 1562.22 39.875 1581.11 19.9375L1600 0V319H1581C1561.89 319 1523.33 319 1485.56 319C1447.67 319 1410 319 1371.11 319C1333.33 319 1295.56 319 1256.67 319C1219 319 1181.11 319 1143.33 319C1104.78 319 1066.67 319 1028.89 319C990.444 319 952.222 319 914.444 319C876.222 319 837.778 319 800 319C761.889 319 723.333 319 685.555 319C647.667 319 610 319 571.111 319C533.333 319 495.556 319 456.667 319C419 319 381.111 319 343.333 319C304.778 319 266.667 319 228.889 319C190.444 319 152.222 319 114.444 319C76.2222 319 37.7778 319 18.8889 319H0V79.75Z" fill="url(#paint0_linear_12_55)"/>
</g>
<defs>
<filter id="filter0_d_12_55" x="-4" y="0" width="1608" height="327" filterUnits="userSpaceOnUse" color-interpolation-filters="sRGB">
<feFlood flood-opacity="0" result="BackgroundImageFix"/>
<feColorMatrix in="SourceAlpha" type="matrix" values="0 0 0 0 0 0 0 0 0 0 0 0 0 0 0 0 0 0 127 0" result="hardAlpha"/>
<feOffset dy="4"/>
<feGaussianBlur stdDeviation="2"/>
<feColorMatrix type="matrix" values="0 0 0 0 0 0 0 0 0 0 0 0 0 0 0 0 0 0 0.25 0"/>
<feBlend mode="normal" in2="BackgroundImageFix" result="effect1_dropShadow_12_55"/>
<feBlend mode="normal" in="SourceGraphic" in2="effect1_dropShadow_12_55" result="shape"/>
</filter>
<linearGradient id="paint0_linear_12_55" x1="-16.7742" y1="15.4355" x2="1599.99" y2="9.61082" gradientUnits="userSpaceOnUse">
<stop stop-color="#5EC3FF" stop-opacity="0.04"/>
<stop offset="1" stop-color="#FD5DEF" stop-opacity="0.04"/>
</linearGradient>
</defs>
</svg>
